# xmcd CD database file
#
# Track frame offsets:
#	150
#	10513
#	23050
#	34278
#	53665
#	64195
#	84618
#	100468
#	116830
#	133188
#
# Disc length: 2034 seconds
#
# Revision: 2
# Processed by: cddbd v1.5.2PL0 Copyright (c) Steve Scherf et al.
# Submitted via: CDex 1.51
#
DISCID=8207f00a
DTITLE=嘉門達夫 - お調子者で行こう
DYEAR=1985
DGENRE=コミックソング
TTITLE0=業界人間ベム
TTITLE1=涙のモデルはギザギザハート ～いかにも私はモデルです～
TTITLE2=天才でバカボンを
TTITLE3=トキメキのオバンチュール
TTITLE4=お前らには負けへんで
TTITLE5=アホが見るブタのケツ
TTITLE6=私はバッテラ
TTITLE7=ツッコミドレミファ･ドン
TTITLE8=あったらコワイセレナーデ 2
TTITLE9=どう見ても山田君
EXTD=YEAR: 1985
EXTT0=
EXTT1=
EXTT2=
EXTT3=
EXTT4=
EXTT5=
EXTT6=
EXTT7=
EXTT8=
EXTT9=
PLAYORDER=
